<svg id="visual" viewBox="0 0 900 450" width="900" height="450" xmlns="http://www.w3.org/2000/svg" xmlns:xlink="http://www.w3.org/1999/xlink" version="1.1"><rect x="0" y="0" width="900" height="450" fill="#03045E"></rect><path d="M0 330L16.7 318.8C33.3 307.7 66.7 285.3 100 278.2C133.3 271 166.7 279 200 288C233.3 297 266.7 307 300 311.2C333.3 315.3 366.7 313.7 400 301.7C433.3 289.7 466.7 267.3 500 264.8C533.3 262.3 566.7 279.7 600 287.2C633.3 294.7 666.7 292.3 700 289.7C733.3 287 766.7 284 800 289.3C833.3 294.7 866.7 308.3 883.3 315.2L900 322L900 451L883.3 451C866.7 451 833.3 451 800 451C766.7 451 733.3 451 700 451C666.7 451 633.3 451 600 451C566.7 451 533.3 451 500 451C466.7 451 433.3 451 400 451C366.7 451 333.3 451 300 451C266.7 451 233.3 451 200 451C166.7 451 133.3 451 100 451C66.7 451 33.3 451 16.7 451L0 451Z" fill="#CAF0F8" stroke-linecap="round" stroke-linejoin="miter"></path></svg>